<?xml version="1.0" standalone="no"?>
<!DOCTYPE svg PUBLIC "-//W3C//DTD SVG 20010904//EN"
 "http://www.w3.org/TR/2001/REC-SVG-20010904/DTD/svg10.dtd">
<svg version="1.0" xmlns="http://www.w3.org/2000/svg"
 width="1600.000000pt" height="1600.000000pt" viewBox="0 0 1600.000000 1600.000000"
 preserveAspectRatio="xMidYMid meet">
<metadata>
Created by potrace 1.11, written by Peter Selinger 2001-2013
</metadata>
<g transform="translate(0.000000,1600.000000) scale(0.100000,-0.100000)"
fill="#000000" stroke="none">
<path d="M8548 12476 c-1 -2 -43 -7 -93 -10 -49 -4 -99 -9 -110 -11 -11 -3
-43 -7 -70 -9 -28 -3 -57 -7 -65 -10 -8 -3 -33 -7 -55 -10 -123 -16 -363 -76
-535 -134 -152 -51 -452 -175 -480 -198 -8 -7 -19 -12 -23 -12 -15 0 -288
-152 -400 -224 -196 -126 -472 -339 -612 -472 -316 -301 -533 -551 -747 -861
-189 -275 -401 -656 -527 -950 -24 -55 -49 -113 -56 -130 -65 -150 -191 -510
-242 -690 -28 -102 -101 -387 -108 -425 -3 -14 -7 -34 -9 -45 -6 -27 -64 -313
-70 -345 -12 -67 -80 -366 -102 -450 -13 -52 -26 -104 -28 -115 -2 -11 -25
-94 -50 -185 -263 -935 -629 -1756 -1102 -2470 -67 -101 -214 -309 -251 -355
-5 -5 -33 -41 -63 -80 -61 -78 -188 -231 -236 -285 -158 -175 -328 -348 -454
-460 -46 -41 -100 -90 -120 -107 l-35 -32 655 0 655 0 130 111 c120 103 452
428 535 523 420 482 722 933 1031 1535 30 58 54 107 54 110 1 3 19 43 42 90
22 47 55 119 73 160 18 41 44 100 57 130 46 103 51 115 58 139 4 13 14 40 23
60 9 20 16 38 17 41 1 3 5 12 8 20 14 32 79 206 83 220 2 8 37 116 78 240 95
287 198 642 221 758 2 10 10 47 19 83 9 35 18 74 20 85 3 12 13 64 25 115 11
52 22 105 25 119 29 154 118 564 141 650 2 8 11 42 20 75 28 105 103 346 140
450 19 55 37 107 39 115 6 22 84 218 107 267 10 24 19 45 19 48 0 10 94 215
154 335 134 268 224 423 389 670 63 94 232 327 247 340 3 3 37 43 75 90 154
189 461 501 591 602 16 13 40 33 54 46 48 45 286 220 400 294 190 125 446 264
627 341 124 53 183 75 337 128 l170 57 -60 7 c-32 4 -72 9 -89 12 -34 5 -521
13 -527 9z"/>
<path d="M10049 12376 c-2 -2 -46 -7 -96 -10 -51 -4 -103 -9 -115 -11 -13 -2
-41 -6 -63 -9 -22 -4 -51 -8 -65 -11 -14 -2 -41 -7 -60 -9 -19 -3 -46 -8 -60
-11 -14 -3 -40 -8 -59 -11 -19 -3 -45 -10 -58 -15 -13 -5 -23 -6 -23 -4 0 2
-11 0 -25 -5 -14 -5 -36 -12 -48 -14 -12 -2 -49 -12 -82 -22 -33 -10 -62 -18
-65 -19 -10 -2 -86 -27 -170 -57 -481 -169 -943 -445 -1345 -802 -112 -99
-307 -295 -400 -401 -38 -44 -72 -82 -75 -85 -3 -3 -39 -48 -81 -100 -258
-325 -460 -648 -650 -1037 -49 -101 -89 -185 -89 -188 0 -3 -9 -27 -21 -53
-127 -286 -255 -664 -344 -1012 -2 -8 -13 -58 -25 -110 -12 -52 -23 -102 -25
-110 -7 -28 -33 -155 -39 -185 -25 -146 -108 -517 -162 -725 -41 -157 -131
-476 -143 -505 -4 -11 -36 -105 -71 -210 -58 -176 -169 -476 -210 -570 -10
-22 -37 -85 -60 -140 -162 -386 -379 -793 -665 -1244 -80 -126 -386 -542 -435
-591 -3 -3 -41 -48 -85 -100 -130 -153 -349 -381 -516 -536 l-66 -60 1021 -1
c562 -1 2936 -3 5276 -6 l4255 -5 -85 24 c-47 14 -110 32 -140 40 -128 34
-531 164 -610 197 -14 6 -27 11 -30 11 -6 1 -62 23 -105 41 -16 6 -46 18 -65
25 -191 71 -574 252 -786 370 -216 121 -530 326 -652 425 -9 8 -44 35 -77 61
-187 148 -446 400 -591 574 -442 531 -697 1094 -780 1725 -11 78 -11 384 -1
454 32 226 139 475 267 621 82 95 159 169 221 212 82 59 111 77 174 110 606
312 1352 51 1646 -577 63 -134 89 -224 115 -395 18 -120 1 -345 -36 -476 -10
-38 -17 -70 -16 -71 2 -2 25 13 52 34 212 158 469 433 621 663 85 127 173 273
173 285 0 2 20 45 44 94 103 211 204 523 231 716 3 22 8 47 10 55 17 64 32
292 29 455 -2 218 -15 326 -70 594 -3 14 -7 28 -9 31 -2 4 -7 21 -10 39 -24
135 -167 494 -283 706 -88 163 -318 501 -389 573 -7 8 -26 30 -41 50 -132 174
-466 490 -712 673 -198 148 -507 322 -712 403 -166 64 -198 76 -275 100 -81
25 -211 59 -268 71 -117 23 -241 44 -300 50 -38 4 -79 10 -90 12 -24 6 -500
14 -506 9z"/>
<path d="M11216 8174 c-179 -33 -348 -113 -468 -222 l-27 -25 39 -46 c121
-144 217 -368 245 -571 7 -55 7 -244 0 -297 -26 -182 -91 -354 -186 -495 -22
-31 -39 -60 -39 -63 0 -4 13 3 29 14 16 12 32 21 35 21 23 0 377 235 406 269
3 3 32 29 65 56 122 102 282 265 370 379 17 21 35 44 40 50 38 41 175 244 239
356 54 94 137 272 133 284 -14 37 -183 159 -287 209 -184 87 -400 117 -594 81z"/>
</g>
</svg>
